<svg width="201" height="199" viewBox="0 0 201 199" fill="none" xmlns="http://www.w3.org/2000/svg">
<path d="M169.205 106.325H195.918C195.624 104.981 194.595 103.931 193.272 103.595C193.356 103.301 193.377 102.986 193.377 102.671C193.377 100.592 191.697 98.891 189.596 98.891C189.008 98.891 188.441 99.038 187.937 99.269C187.139 97.5049 185.354 96.2659 183.296 96.2659C181.091 96.2659 179.222 97.6519 178.508 99.605C177.878 99.185 177.143 98.954 176.324 98.954C174.14 98.954 172.355 100.739 172.355 102.923C172.355 103.112 172.376 103.301 172.397 103.49C170.822 103.658 169.541 104.813 169.205 106.325Z" fill="#EAEAEA"/>
<path d="M12.6436 117.162H40.8687C40.5536 115.755 39.4616 114.621 38.0755 114.285C38.1596 113.97 38.2016 113.655 38.2016 113.298C38.2016 111.093 36.4165 109.308 34.2114 109.308C33.5814 109.308 32.9933 109.455 32.4683 109.707C31.6283 107.838 29.7382 106.536 27.5541 106.536C25.223 106.536 23.249 108.006 22.4929 110.064C21.8419 109.623 21.0439 109.371 20.1829 109.371C17.8728 109.371 15.9827 111.24 15.9827 113.571C15.9827 113.781 16.0037 113.97 16.0247 114.159C14.3656 114.327 13.0006 115.545 12.6436 117.162Z" fill="#EAEAEA"/>
<path d="M165.76 41.4538H199.362C198.984 39.7737 197.682 38.4296 196.023 38.0306C196.107 37.6526 196.17 37.2746 196.17 36.8756C196.17 34.2505 194.049 32.1294 191.423 32.1294C190.667 32.1294 189.974 32.2974 189.344 32.6124C188.336 30.3863 186.089 28.8323 183.506 28.8323C180.734 28.8323 178.382 30.5753 177.479 33.0324C176.702 32.5074 175.757 32.2134 174.749 32.2134C171.998 32.2134 169.751 34.4605 169.751 37.2116C169.751 37.4426 169.772 37.6946 169.793 37.9256C167.798 38.0726 166.181 39.5427 165.76 41.4538Z" fill="#EAEAEA"/>
<path d="M0.27417 58.3384H30.8934C30.5573 56.8053 29.3813 55.5873 27.8482 55.2093C27.9322 54.8732 27.9742 54.5162 27.9742 54.1592C27.9742 51.7651 26.0422 49.8331 23.6481 49.8331C22.9761 49.8331 22.325 49.9801 21.758 50.2741C20.834 48.258 18.7969 46.851 16.4448 46.851C13.9247 46.851 11.7826 48.447 10.9636 50.6731C10.2496 50.2111 9.38853 49.9381 8.46449 49.9381C5.94439 49.9381 3.90731 51.9751 3.90731 54.4952C3.90731 54.7052 3.92831 54.9362 3.94931 55.1462C2.14324 55.2722 0.673185 56.5953 0.27417 58.3384Z" fill="#EAEAEA"/>
<path d="M3.27722 190.518H26.7771C26.5251 189.342 25.6011 188.418 24.446 188.124C24.509 187.872 24.551 187.598 24.551 187.304C24.551 185.477 23.06 183.986 21.2329 183.986C20.7079 183.986 20.2249 184.112 19.7839 184.322C19.0698 182.768 17.5158 181.697 15.6887 181.697C13.7566 181.697 12.1186 182.915 11.4885 184.637C10.9425 184.28 10.2915 184.07 9.57747 184.07C7.64539 184.07 6.09133 185.624 6.09133 187.556C6.09133 187.724 6.11233 187.893 6.13333 188.061C4.70528 188.166 3.57123 189.195 3.27722 190.518Z" fill="#EAEAEA"/>
<path d="M177.5 183.524H201C200.748 182.348 199.824 181.424 198.669 181.13C198.732 180.878 198.774 180.605 198.774 180.311C198.774 178.484 197.283 176.993 195.456 176.993C194.931 176.993 194.448 177.119 194.007 177.329C193.293 175.775 191.739 174.704 189.912 174.704C187.98 174.704 186.341 175.922 185.711 177.644C185.165 177.287 184.514 177.077 183.8 177.077C181.868 177.077 180.314 178.631 180.314 180.563C180.314 180.731 180.335 180.899 180.356 181.067C178.928 181.151 177.794 182.18 177.5 183.524Z" fill="#EAEAEA"/>
<path d="M103.325 190.707C101.54 191.862 98.9991 191.862 97.214 190.707L70.06 173.15L50.3822 160.424C46.8541 158.156 48.8912 153.62 53.4273 153.62H100.259H147.091C151.627 153.62 153.664 158.135 150.136 160.424L130.458 173.15L103.325 190.707Z" fill="#D67412"/>
<path d="M86.9658 189.888C86.6298 190.287 86.1047 190.287 85.7687 189.888L75.4153 177.455L65.9229 166.073C65.3979 165.422 65.7549 164.33 66.511 164.33H86.3778H106.245C107.001 164.33 107.379 165.443 106.833 166.073L97.3402 177.455L86.9658 189.888Z" fill="#FC842C"/>
<path d="M112.692 190.686C112.335 191.127 111.747 191.127 111.39 190.686L99.9653 176.993L89.5069 164.435C88.9188 163.721 89.3389 162.503 90.1579 162.503H112.041H133.924C134.764 162.503 135.163 163.721 134.575 164.435L124.116 176.993L112.692 190.686Z" fill="#FC842C"/>
<path d="M100.07 197.952C99.7763 198.309 99.3143 198.309 99.0203 197.952L89.8429 186.948L81.4216 176.867C80.9386 176.3 81.2746 175.313 81.9466 175.313H99.5453H117.144C117.816 175.313 118.152 176.3 117.669 176.867L109.248 186.948L100.07 197.952Z" fill="#FC842C"/>
<path d="M120.336 166.808H115.317C114.729 166.808 114.246 166.262 114.246 165.59C114.246 164.918 114.729 164.372 115.317 164.372H120.336C120.924 164.372 121.407 164.918 121.407 165.59C121.407 166.283 120.924 166.808 120.336 166.808Z" fill="#F99943"/>
<path d="M123.675 166.808H122.961C122.373 166.808 121.89 166.262 121.89 165.59C121.89 164.918 122.373 164.372 122.961 164.372H123.675C124.263 164.372 124.746 164.918 124.746 165.59C124.746 166.283 124.263 166.808 123.675 166.808Z" fill="#F99943"/>
<path d="M99.1884 170.651H93.2662C92.5731 170.651 92.0061 170.021 92.0061 169.223C92.0061 168.425 92.5731 167.795 93.2662 167.795H99.1884C99.8814 167.795 100.448 168.425 100.448 169.223C100.448 170.021 99.8814 170.651 99.1884 170.651Z" fill="#F99943"/>
<path d="M103.136 170.651H102.296C101.603 170.651 101.036 170.021 101.036 169.223C101.036 168.425 101.603 167.795 102.296 167.795H103.136C103.829 167.795 104.396 168.425 104.396 169.223C104.396 170.021 103.829 170.651 103.136 170.651Z" fill="#F99943"/>
<path d="M99.9863 189.762H96.5632C96.1641 189.762 95.8281 189.384 95.8281 188.943C95.8281 188.481 96.1641 188.124 96.5632 188.124H99.9863C100.385 188.124 100.721 188.502 100.721 188.943C100.721 189.384 100.385 189.762 99.9863 189.762Z" fill="#F99943"/>
<path d="M102.254 189.762H101.771C101.372 189.762 101.036 189.384 101.036 188.943C101.036 188.481 101.372 188.124 101.771 188.124H102.254C102.653 188.124 102.989 188.502 102.989 188.943C102.989 189.384 102.674 189.762 102.254 189.762Z" fill="#F99943"/>
<path d="M82.1146 169.433C82.1146 170.441 81.4006 171.239 80.4976 171.239H75.6254C74.7433 171.239 74.0083 170.42 74.0083 169.433C74.0083 168.425 74.7223 167.627 75.6254 167.627H80.4976C81.4006 167.627 82.1146 168.425 82.1146 169.433Z" fill="#F99943"/>
<path d="M85.7475 172.037C85.7475 173.045 85.0335 173.843 84.1305 173.843H79.2583C78.3763 173.843 77.6412 173.024 77.6412 172.037C77.6412 171.029 78.3553 170.231 79.2583 170.231H84.1305C85.0335 170.231 85.7475 171.029 85.7475 172.037Z" fill="#F99943"/>
<path d="M113.826 173.486C113.826 172.709 113.259 172.058 112.566 172.058H108.722C108.029 172.058 107.462 172.688 107.462 173.486C107.462 174.263 108.029 174.915 108.722 174.915H112.566C113.259 174.915 113.826 174.284 113.826 173.486Z" fill="#F99943"/>
<path d="M116.682 171.428C116.682 170.651 116.115 170 115.422 170H111.6C110.907 170 110.34 170.63 110.34 171.428C110.34 172.205 110.907 172.856 111.6 172.856H115.422C116.115 172.856 116.682 172.226 116.682 171.428Z" fill="#F99943"/>
<path d="M115.128 178.401C114.288 178.401 113.595 179.178 113.595 180.123C113.595 180.396 113.658 180.648 113.763 180.879H112.755C111.915 180.879 111.222 181.656 111.222 182.601C111.222 183.567 111.915 184.323 112.755 184.323H117.942L122.919 178.359H115.128V178.401Z" fill="#F99943"/>
<path d="M85.3696 179.64H84.3616C84.4666 179.409 84.5296 179.157 84.5296 178.884C84.5296 177.918 83.8365 177.162 82.9965 177.162H75.1842L75.4362 177.477L80.1404 183.126H85.3696C86.2096 183.126 86.9026 182.349 86.9026 181.404C86.9026 180.417 86.2096 179.64 85.3696 179.64Z" fill="#F99943"/>
<path d="M101.436 177.476C101.436 178.379 100.784 179.094 99.9864 179.094H93.2662C92.4682 179.094 91.8171 178.358 91.8171 177.476C91.8171 176.573 92.4682 175.859 93.2662 175.859H99.9864C100.805 175.859 101.436 176.573 101.436 177.476Z" fill="#F99943"/>
<path d="M98.7894 180.039C98.7894 179.514 99.1675 179.094 99.6295 179.094H96.4374C96.8994 179.094 97.2774 179.514 97.2774 180.039C97.2774 180.564 96.8994 180.984 96.4374 180.984H99.6085C99.1465 180.984 98.7894 180.564 98.7894 180.039Z" fill="#F99943"/>
<path d="M104.522 182.411C104.522 183.209 103.955 183.839 103.262 183.839H95.3031C94.6101 183.839 94.0431 183.209 94.0431 182.411C94.0431 181.613 94.6101 180.983 95.3031 180.983H103.262C103.955 180.983 104.522 181.634 104.522 182.411Z" fill="#F99943"/>
<path d="M158.872 143.476C158.683 143.14 158.368 142.93 158.011 142.93H42.528C42.171 142.93 41.856 143.14 41.667 143.476C41.478 143.812 41.4779 144.232 41.646 144.589L49.1852 160.424C49.3533 160.802 49.7103 161.012 50.0673 161.012H150.493C150.871 161.012 151.207 160.781 151.375 160.424L158.914 144.589C159.062 144.232 159.04 143.812 158.872 143.476Z" fill="#BC5800"/>
<path d="M68.8419 157.841H59.0975C57.9425 157.841 57.0184 156.791 57.0184 155.489C57.0184 154.187 57.9425 153.137 59.0975 153.137H68.8419C69.9969 153.137 70.921 154.187 70.921 155.489C70.921 156.791 69.9969 157.841 68.8419 157.841Z" fill="#AA5000"/>
<path d="M75.3312 157.84H73.9452C72.7901 157.84 71.8661 156.79 71.8661 155.488C71.8661 154.186 72.7901 153.136 73.9452 153.136H75.3312C76.4863 153.136 77.4103 154.186 77.4103 155.488C77.4103 156.79 76.4863 157.84 75.3312 157.84Z" fill="#AA5000"/>
<path d="M130.395 153.347H139.3C140.35 153.347 141.211 154.313 141.211 155.489C141.211 156.665 140.35 157.631 139.3 157.631H130.395C129.345 157.631 128.484 156.665 128.484 155.489C128.484 154.313 129.345 153.347 130.395 153.347Z" fill="#AA5000"/>
<path d="M124.452 153.347H125.733C126.783 153.347 127.644 154.313 127.644 155.489C127.644 156.665 126.783 157.631 125.733 157.631H124.452C123.402 157.631 122.541 156.665 122.541 155.489C122.541 154.313 123.402 153.347 124.452 153.347Z" fill="#AA5000"/>
<path d="M103.367 153.934C103.367 155.215 102.443 156.266 101.309 156.266H95.534C94.4 156.266 93.476 155.215 93.476 153.934C93.476 152.653 94.4 151.603 95.534 151.603H101.288C102.443 151.603 103.367 152.632 103.367 153.934Z" fill="#AA5000"/>
<path d="M108.954 156.497C108.954 157.82 107.988 158.912 106.811 158.912H100.91C99.7342 158.912 98.7682 157.841 98.7682 156.497C98.7682 155.174 99.7342 154.082 100.91 154.082H106.811C107.988 154.082 108.954 155.174 108.954 156.497Z" fill="#AA5000"/>
<path d="M159.313 149.083C159.313 149.566 158.977 149.944 158.536 149.944H40.6799C40.2598 149.944 39.9028 149.566 39.9028 149.083V139.402C39.9028 138.919 40.2388 138.541 40.6799 138.541H158.536C158.956 138.541 159.313 138.919 159.313 139.402V149.083Z" fill="#DFDFDF"/>
<path d="M158.536 138.541H157.738V147.487C157.738 147.97 157.402 148.348 156.961 148.348H39.9028V149.083C39.9028 149.566 40.2388 149.944 40.6799 149.944H158.536C158.956 149.944 159.313 149.566 159.313 149.083V139.402C159.313 138.919 158.956 138.541 158.536 138.541Z" fill="#C3C3C3"/>
<path d="M51.1593 143.623H45.6991C45.0481 143.623 44.5231 143.035 44.5231 142.3C44.5231 141.565 45.0481 140.977 45.6991 140.977H51.1593C51.8104 140.977 52.3354 141.565 52.3354 142.3C52.3354 143.035 51.7894 143.623 51.1593 143.623Z" fill="white"/>
<path d="M54.7923 143.623H54.0153C53.3643 143.623 52.8392 143.035 52.8392 142.3C52.8392 141.565 53.3643 140.977 54.0153 140.977H54.7923C55.4434 140.977 55.9684 141.565 55.9684 142.3C55.9684 143.035 55.4224 143.623 54.7923 143.623Z" fill="white"/>
<path d="M104.795 120.459H94.6728L94.4208 86.6686L104.543 86.6896L104.795 120.459Z" fill="#00D7FF"/>
<path d="M99.4821 113.886L82.8915 131.715L116.325 131.778L99.4821 113.886L82.8915 131.715L116.325 131.778L99.4821 113.886Z" fill="#00D7FF"/>
<path d="M77.0321 87.761C75.73 87.677 45.2158 85.5559 45.0688 63.127C45.0268 57.4778 46.6019 52.8996 49.752 49.4975C56.9763 41.6642 69.9968 43.3653 70.5638 43.4493L69.9968 49.9805C69.8918 49.9595 58.8244 48.5525 53.4061 54.4117C51.4531 56.5538 50.508 59.3889 50.529 63.127C50.634 79.3186 77.0111 81.1667 77.2631 81.1667L77.0321 87.761Z" fill="#00D7FF"/>
<path d="M122.52 87.8238C123.822 87.7398 154.294 85.7237 154.147 63.2949C154.105 57.6456 152.467 53.0465 149.275 49.6443C141.946 41.79 128.946 43.4491 128.379 43.5121L129.03 50.0643C129.135 50.0433 140.182 48.6573 145.684 54.5585C147.679 56.7006 148.666 59.5567 148.687 63.2949C148.792 79.4865 122.457 81.2506 122.205 81.2506L122.52 87.8238Z" fill="#00D7FF"/>
<path d="M62.4157 32.0876C61.2606 32.0876 60.2946 33.0117 60.2526 34.1667C60.2106 35.4058 60.2106 36.6658 60.2106 37.9259C60.4626 75.4123 78.2923 105.821 100.049 105.863C121.806 105.905 139.237 75.5383 138.985 38.0519C138.985 36.7708 138.943 35.5108 138.901 34.2717C138.859 33.1167 137.914 32.2137 136.759 32.2137L62.4157 32.0876Z" fill="#00D7FF"/>
<path d="M74.9108 77.4491C73.9238 77.4491 72.9788 76.8821 72.5587 75.9161C69.1356 68.0408 67.0565 58.7794 66.5315 49.098C66.4475 47.691 67.5396 46.4729 68.9466 46.4099C70.3537 46.3259 71.5717 47.418 71.6347 48.825C72.1177 57.8974 74.0708 66.5707 77.2419 73.9C77.8089 75.202 77.1999 76.7141 75.9189 77.2601C75.6039 77.3861 75.2678 77.4491 74.9108 77.4491Z" fill="white"/>
<path d="M69.0098 45.0872C68.9888 45.0872 68.9678 45.0872 68.9468 45.0872C67.5397 45.0662 66.4057 43.8901 66.4477 42.4831C66.4687 41.769 66.4897 41.055 66.5107 40.278C66.5737 38.8709 67.7707 37.7789 69.1778 37.8209C70.5848 37.8839 71.6769 39.0809 71.6349 40.488C71.5929 41.223 71.5719 41.8951 71.5719 42.5671C71.5299 43.9741 70.3958 45.0872 69.0098 45.0872Z" fill="white"/>
<path d="M81.7363 89.6301L81.8623 89.6931L90.2206 84.4429L91.5647 94.2293L91.6907 94.2712L104.018 67.8312L94.0638 63.2111L81.7363 89.6301Z" fill="white"/>
<path d="M117.48 89.6301L117.354 89.6931L108.996 84.4429L107.651 94.2293L107.525 94.2712L95.198 67.8312L105.152 63.2111L117.48 89.6301Z" fill="white"/>
<path d="M112.239 73.0154C119.218 66.0361 119.218 54.7205 112.239 47.7412C105.26 40.762 93.944 40.7619 86.9647 47.7412C79.9854 54.7205 79.9854 66.0361 86.9647 73.0154C93.944 79.9946 105.26 79.9946 112.239 73.0154Z" fill="white"/>
<path d="M114.12 60.3758C114.12 68.3771 107.63 74.8873 99.6081 74.8873C91.6068 74.8873 85.0966 68.3981 85.0966 60.3758C85.0966 52.3745 91.5858 45.8643 99.6081 45.8643C107.609 45.8853 114.12 52.3745 114.12 60.3758Z" fill="#00D7FF"/>
<path d="M102.338 69.3642H98.3901V56.1966H96.8781V53.5715C97.4451 53.5715 97.9281 53.3195 98.3271 52.8365C98.7261 52.3535 98.9152 51.8705 98.9152 51.3875H102.338V69.3642Z" fill="white"/>
<path d="M120.609 138.142C120.609 138.352 120.441 138.541 120.231 138.541H78.9851C78.7751 138.541 78.6071 138.373 78.6071 138.142V132.009C78.6071 131.799 78.7751 131.61 78.9851 131.61H120.252C120.462 131.61 120.63 131.778 120.63 132.009V138.142H120.609Z" fill="#00D7FF"/>
<path d="M114.036 177.476H145.012C144.676 175.922 143.479 174.704 141.946 174.305C142.03 173.969 142.072 173.612 142.072 173.234C142.072 170.819 140.119 168.866 137.704 168.866C137.011 168.866 136.359 169.034 135.792 169.307C134.868 167.249 132.81 165.842 130.395 165.842C127.854 165.842 125.67 167.459 124.851 169.706C124.116 169.223 123.255 168.95 122.331 168.95C119.79 168.95 117.732 171.008 117.732 173.549C117.732 173.78 117.753 173.99 117.774 174.2C115.926 174.368 114.414 175.712 114.036 177.476Z" fill="#EAEAEA"/>
<path d="M53.0491 172.961H89.9895C89.5905 171.113 88.1624 169.643 86.3144 169.181C86.4194 168.782 86.4824 168.341 86.4824 167.9C86.4824 165.023 84.1513 162.691 81.2742 162.691C80.4551 162.691 79.6781 162.88 78.9851 163.217C77.872 160.78 75.4149 159.079 72.5588 159.079C69.5137 159.079 66.9306 160.99 65.9436 163.7C65.0825 163.133 64.0535 162.796 62.9405 162.796C59.9163 162.796 57.4592 165.254 57.4592 168.278C57.4592 168.551 57.4802 168.803 57.5222 169.055C55.3172 169.244 53.5111 170.861 53.0491 172.961Z" fill="#EAEAEA"/>
</svg>
